# Blender 3.3.21
# www.blender.org
mtllib slash.mtl
o Sword_curve
v -0.824744 0.000000 -0.210085
v -0.909471 0.053689 -0.166672
v -1.085313 0.115588 -0.076574
v -1.234761 0.145216 0.000000
v -1.384210 0.113637 0.076574
v -1.560051 0.049788 0.166672
v -1.644778 0.000000 0.210085
v -0.778039 0.000000 -0.069701
v -0.854981 0.050530 -0.023787
v -1.014665 0.108786 0.071502
v -1.150381 0.136671 0.152489
v -1.286097 0.106950 0.233475
v -1.445781 0.046858 0.328764
v -1.522723 0.000000 0.374678
v -0.713735 0.000000 0.080764
v -0.782692 0.047371 0.128729
v -0.925805 0.101985 0.228274
v -1.047437 0.128127 0.312878
v -1.169069 0.100264 0.397482
v -1.312182 0.043929 0.497027
v -1.381139 0.000000 0.544991
v -0.634616 0.000000 0.231221
v -0.695091 0.044212 0.281108
v -0.820600 0.095184 0.384645
v -0.927271 0.119582 0.472641
v -1.033941 0.093578 0.560637
v -1.159450 0.040999 0.664174
v -1.219925 0.000000 0.714062
v -0.543557 0.000000 0.372735
v -0.594735 0.041053 0.424502
v -0.700950 0.088383 0.531940
v -0.791222 0.111038 0.623252
v -0.881494 0.086891 0.714563
v -0.987709 0.038070 0.822001
v -1.038887 0.000000 0.873769
v -0.443757 0.000000 0.497391
v -0.484439 0.037894 0.550869
v -0.568872 0.081582 0.661855
v -0.640631 0.102493 0.756183
v -0.712391 0.080205 0.850510
v -0.796824 0.035140 0.961497
v -0.837506 0.000000 1.014974
v -0.338349 0.000000 0.598979
v -0.366967 0.034735 0.653518
v -0.426361 0.074780 0.766708
v -0.476840 0.093949 0.862908
v -0.527320 0.073518 0.959108
v -0.586714 0.032211 1.072298
v -0.615332 0.000000 1.126837
v -0.228644 0.000000 0.673842
v -0.243635 0.031576 0.727788
v -0.274747 0.067979 0.839746
v -0.301189 0.085404 0.934900
v -0.327632 0.066832 1.030053
v -0.358744 0.029281 1.142012
v -0.373735 0.000000 1.195958
v -0.109862 0.000000 0.719845
v -0.110928 0.028417 0.770222
v -0.113139 0.061178 0.874774
v -0.115019 0.076860 0.963633
v -0.116898 0.060146 1.052491
v -0.119109 0.026352 1.157043
v -0.120175 0.000000 1.207420
v 0.051540 0.000000 0.728011
v 0.060701 0.025258 0.771851
v 0.079715 0.054377 0.862835
v 0.095875 0.068315 0.940163
v 0.112035 0.053459 1.017490
v 0.131049 0.023422 1.108474
v 0.140210 0.000000 1.152313
v 0.265872 0.000000 0.689279
v 0.280100 0.022099 0.725790
v 0.309628 0.047576 0.801564
v 0.334724 0.059771 0.865964
v 0.359820 0.046773 0.930364
v 0.389348 0.020493 1.006138
v 0.403575 0.000000 1.042649
v 0.505037 0.000000 0.605942
v 0.521298 0.018939 0.635325
v 0.555048 0.040775 0.696308
v 0.583731 0.051226 0.748137
v 0.612414 0.040086 0.799966
v 0.646163 0.017563 0.860949
v 0.662425 0.000000 0.890332
v 0.744552 0.000000 0.484931
v 0.761197 0.015780 0.507424
v 0.795740 0.033973 0.554106
v 0.825099 0.042682 0.593780
v 0.854457 0.033400 0.633455
v 0.889001 0.014634 0.680137
v 0.905645 0.000000 0.702630
v 0.964153 0.000000 0.333710
v 0.980039 0.012621 0.349473
v 1.013009 0.027172 0.382189
v 1.041031 0.034137 0.409994
v 1.069052 0.026714 0.437799
v 1.102022 0.011704 0.470514
v 1.117908 0.000000 0.486278
v 1.145916 0.000000 0.159223
v 1.159929 0.009462 0.168450
v 1.189012 0.020371 0.187600
v 1.213729 0.025593 0.203876
v 1.238446 0.020027 0.220152
v 1.267529 0.008775 0.239303
v 1.281542 0.000000 0.248530
v 1.273802 0.000000 -0.033698
v 1.284464 0.006303 -0.030345
v 1.306591 0.013570 -0.023386
v 1.325397 0.017048 -0.017472
v 1.344203 0.013341 -0.011558
v 1.366331 0.005845 -0.004599
v 1.376992 0.000000 -0.001246
v 1.331298 0.000000 -0.245495
v 1.336865 0.003144 -0.245796
v 1.348418 0.006769 -0.246421
v 1.358238 0.008504 -0.246952
v 1.368057 0.006654 -0.247483
v 1.379610 0.002916 -0.248108
v 1.385177 0.000000 -0.248410
v -0.909471 -0.053689 -0.166672
v -1.085313 -0.115588 -0.076574
v -1.234761 -0.145216 0.000000
v -1.384210 -0.113637 0.076574
v -1.560051 -0.049788 0.166672
v -0.854981 -0.050530 -0.023787
v -1.014665 -0.108786 0.071502
v -1.150381 -0.136671 0.152489
v -1.286097 -0.106950 0.233475
v -1.445781 -0.046858 0.328764
v -0.782692 -0.047371 0.128729
v -0.925805 -0.101985 0.228274
v -1.047437 -0.128127 0.312878
v -1.169069 -0.100264 0.397482
v -1.312182 -0.043929 0.497027
v -0.695091 -0.044212 0.281108
v -0.820600 -0.095184 0.384645
v -0.927271 -0.119582 0.472641
v -1.033941 -0.093578 0.560637
v -1.159450 -0.040999 0.664174
v -0.594735 -0.041053 0.424502
v -0.700950 -0.088383 0.531940
v -0.791222 -0.111038 0.623252
v -0.881494 -0.086891 0.714563
v -0.987709 -0.038070 0.822001
v -0.484439 -0.037894 0.550869
v -0.568872 -0.081582 0.661855
v -0.640631 -0.102493 0.756183
v -0.712391 -0.080205 0.850510
v -0.796824 -0.035140 0.961497
v -0.366967 -0.034735 0.653518
v -0.426361 -0.074780 0.766708
v -0.476840 -0.093949 0.862908
v -0.527320 -0.073518 0.959108
v -0.586714 -0.032211 1.072298
v -0.243635 -0.031576 0.727788
v -0.274747 -0.067979 0.839746
v -0.301189 -0.085404 0.934900
v -0.327632 -0.066832 1.030053
v -0.358744 -0.029281 1.142012
v -0.110928 -0.028417 0.770222
v -0.113139 -0.061178 0.874774
v -0.115019 -0.076860 0.963633
v -0.116898 -0.060146 1.052491
v -0.119109 -0.026352 1.157043
v 0.060701 -0.025258 0.771851
v 0.079715 -0.054377 0.862835
v 0.095875 -0.068315 0.940163
v 0.112035 -0.053459 1.017490
v 0.131049 -0.023422 1.108474
v 0.280100 -0.022099 0.725790
v 0.309628 -0.047576 0.801564
v 0.334724 -0.059771 0.865964
v 0.359820 -0.046773 0.930364
v 0.389348 -0.020493 1.006138
v 0.521298 -0.018939 0.635325
v 0.555048 -0.040775 0.696308
v 0.583731 -0.051226 0.748137
v 0.612414 -0.040086 0.799966
v 0.646163 -0.017563 0.860949
v 0.761197 -0.015780 0.507424
v 0.795740 -0.033973 0.554106
v 0.825099 -0.042682 0.593780
v 0.854457 -0.033400 0.633455
v 0.889001 -0.014634 0.680137
v 0.980039 -0.012621 0.349473
v 1.013009 -0.027172 0.382189
v 1.041031 -0.034137 0.409994
v 1.069052 -0.026714 0.437799
v 1.102022 -0.011704 0.470514
v 1.159929 -0.009462 0.168450
v 1.189012 -0.020371 0.187600
v 1.213729 -0.025593 0.203876
v 1.238446 -0.020027 0.220152
v 1.267529 -0.008775 0.239303
v 1.284464 -0.006303 -0.030345
v 1.306591 -0.013570 -0.023386
v 1.325397 -0.017048 -0.017472
v 1.344203 -0.013341 -0.011558
v 1.366331 -0.005845 -0.004599
v 1.336865 -0.003144 -0.245796
v 1.348418 -0.006769 -0.246421
v 1.358238 -0.008504 -0.246952
v 1.368057 -0.006654 -0.247483
v 1.379610 -0.002916 -0.248108
vn 0.3883 0.9126 -0.1281
vn 0.3747 0.9164 -0.1409
vn 0.9352 -0.0000 -0.3541
vn 0.9477 -0.0000 -0.3191
vn 0.2342 0.9699 -0.0668
vn 0.2287 0.9706 -0.0756
vn 0.0156 0.9988 0.0474
vn 0.0159 0.9989 0.0451
vn -0.1949 0.9672 0.1628
vn -0.1890 0.9678 0.1665
vn -0.3160 0.9180 0.2396
vn -0.3051 0.9202 0.2451
vn -0.8021 -0.0000 0.5972
vn -0.7866 -0.0000 0.6175
vn 0.3614 0.9166 -0.1708
vn 0.9032 -0.0000 -0.4291
vn 0.2209 0.9707 -0.0943
vn 0.0169 0.9990 0.0415
vn -0.1788 0.9679 0.1769
vn -0.2895 0.9203 0.2631
vn -0.7473 -0.0000 0.6645
vn 0.3454 0.9168 -0.2006
vn 0.8641 -0.0000 -0.5034
vn 0.2115 0.9708 -0.1129
vn 0.0188 0.9990 0.0394
vn -0.1649 0.9679 0.1899
vn -0.2684 0.9203 0.2847
vn -0.6941 -0.0000 0.7198
vn 0.3241 0.9168 -0.2332
vn 0.8121 -0.0000 -0.5836
vn 0.1991 0.9709 -0.1332
vn 0.0217 0.9990 0.0381
vn -0.1454 0.9678 0.2056
vn -0.2392 0.9201 0.3102
vn -0.6202 -0.0000 0.7844
vn 0.2941 0.9168 -0.2700
vn 0.7390 -0.0000 -0.6737
vn 0.1814 0.9709 -0.1563
vn 0.0260 0.9990 0.0369
vn -0.1178 0.9676 0.2232
vn -0.1977 0.9198 0.3390
vn -0.5155 -0.0000 0.8569
vn 0.2494 0.9169 -0.3116
vn 0.6314 -0.0000 -0.7755
vn 0.1547 0.9710 -0.1824
vn 0.0317 0.9989 0.0347
vn -0.0789 0.9674 0.2406
vn -0.1389 0.9194 0.3680
vn -0.3675 -0.0000 0.9300
vn 0.1810 0.9175 -0.3542
vn 0.4675 -0.0000 -0.8840
vn 0.1140 0.9712 -0.2092
vn 0.0382 0.9988 0.0302
vn -0.0266 0.9672 0.2528
vn -0.0588 0.9189 0.3900
vn -0.1661 -0.0000 0.9861
vn 0.0792 0.9199 -0.3842
vn 0.2165 -0.0000 -0.9763
vn 0.0546 0.9720 -0.2287
vn 0.0419 0.9989 0.0224
vn 0.0345 0.9670 0.2525
vn 0.0369 0.9187 0.3933
vn 0.0762 -0.0000 0.9971
vn -0.0247 0.9194 -0.3924
vn -0.0586 -0.0000 -0.9983
vn -0.0069 0.9719 -0.2353
vn 0.0397 0.9992 0.0096
vn 0.0863 0.9673 0.2385
vn 0.1206 0.9191 0.3751
vn 0.2936 -0.0000 0.9559
vn -0.0990 0.9188 -0.3822
vn -0.2509 -0.0000 -0.9680
vn -0.0519 0.9717 -0.2303
vn 0.0354 0.9994 0.0014
vn 0.1210 0.9678 0.2209
vn 0.1778 0.9199 0.3496
vn 0.4444 -0.0000 0.8958
vn -0.1530 0.9185 -0.3645
vn -0.3883 -0.0000 -0.9215
vn -0.0848 0.9717 -0.2206
vn 0.0329 0.9995 -0.0032
vn 0.1476 0.9680 0.2031
vn 0.2213 0.9202 0.3229
vn 0.5580 -0.0000 0.8299
vn -0.2003 0.9185 -0.3408
vn -0.5077 -0.0000 -0.8615
vn -0.1135 0.9717 -0.2072
vn 0.0320 0.9995 -0.0070
vn 0.1728 0.9680 0.1821
vn 0.2617 0.9202 0.2912
vn 0.6617 -0.0000 0.7498
vn -0.2483 0.9187 -0.3070
vn -0.6291 -0.0000 -0.7773
vn -0.1426 0.9718 -0.1880
vn 0.0325 0.9994 -0.0112
vn 0.1995 0.9678 0.1535
vn 0.3043 0.9198 0.2477
vn 0.7690 -0.0000 0.6392
vn -0.3011 0.9193 -0.2533
vn -0.7643 -0.0000 -0.6449
vn -0.1748 0.9720 -0.1573
vn 0.0337 0.9993 -0.0172
vn 0.2281 0.9674 0.1097
vn 0.3501 0.9191 0.1809
vn 0.8822 -0.0000 0.4708
vn -0.3542 0.9210 -0.1622
vn -0.9073 -0.0000 -0.4205
vn -0.2077 0.9726 -0.1046
vn 0.0342 0.9991 -0.0262
vn 0.2523 0.9668 0.0411
vn 0.3896 0.9179 0.0754
vn 0.9783 -0.0000 0.2073
vn -0.3729 0.9220 -0.1040
vn -0.9653 -0.0000 -0.2612
vn -0.2215 0.9725 -0.0712
vn 0.0348 0.9989 -0.0322
vn 0.2605 0.9655 -0.0010
vn 0.4008 0.9161 0.0108
vn 0.9995 -0.0000 0.0326
vn 0.3883 -0.9126 -0.1281
vn 0.3747 -0.9164 -0.1409
vn 0.2342 -0.9699 -0.0668
vn 0.2287 -0.9706 -0.0756
vn 0.0156 -0.9988 0.0474
vn 0.0159 -0.9989 0.0451
vn -0.1949 -0.9672 0.1628
vn -0.1890 -0.9678 0.1665
vn -0.3160 -0.9180 0.2396
vn -0.3051 -0.9202 0.2451
vn 0.3614 -0.9166 -0.1708
vn 0.2209 -0.9707 -0.0943
vn 0.0169 -0.9990 0.0415
vn -0.1788 -0.9679 0.1769
vn -0.2895 -0.9203 0.2631
vn 0.3454 -0.9168 -0.2006
vn 0.2115 -0.9708 -0.1129
vn 0.0188 -0.9990 0.0394
vn -0.1649 -0.9679 0.1899
vn -0.2684 -0.9203 0.2847
vn 0.3241 -0.9168 -0.2332
vn 0.1991 -0.9709 -0.1332
vn 0.0217 -0.9990 0.0381
vn -0.1454 -0.9678 0.2056
vn -0.2392 -0.9201 0.3102
vn 0.2941 -0.9168 -0.2700
vn 0.1814 -0.9709 -0.1563
vn 0.0260 -0.9990 0.0369
vn -0.1178 -0.9676 0.2232
vn -0.1977 -0.9198 0.3390
vn 0.2494 -0.9169 -0.3116
vn 0.1547 -0.9710 -0.1824
vn 0.0317 -0.9989 0.0347
vn -0.0789 -0.9674 0.2406
vn -0.1389 -0.9194 0.3680
vn 0.1810 -0.9175 -0.3542
vn 0.1140 -0.9712 -0.2092
vn 0.0382 -0.9988 0.0302
vn -0.0266 -0.9672 0.2528
vn -0.0588 -0.9189 0.3900
vn 0.0792 -0.9199 -0.3842
vn 0.0546 -0.9720 -0.2287
vn 0.0419 -0.9989 0.0224
vn 0.0345 -0.9670 0.2525
vn 0.0369 -0.9187 0.3933
vn -0.0247 -0.9194 -0.3924
vn -0.0069 -0.9719 -0.2353
vn 0.0397 -0.9992 0.0096
vn 0.0863 -0.9673 0.2385
vn 0.1206 -0.9191 0.3751
vn -0.0990 -0.9188 -0.3822
vn -0.0519 -0.9717 -0.2303
vn 0.0354 -0.9994 0.0014
vn 0.1210 -0.9678 0.2209
vn 0.1778 -0.9199 0.3496
vn -0.1530 -0.9185 -0.3645
vn -0.0848 -0.9717 -0.2206
vn 0.0329 -0.9995 -0.0032
vn 0.1476 -0.9680 0.2031
vn 0.2213 -0.9202 0.3229
vn -0.2003 -0.9185 -0.3408
vn -0.1135 -0.9717 -0.2072
vn 0.0320 -0.9995 -0.0070
vn 0.1728 -0.9680 0.1821
vn 0.2617 -0.9202 0.2912
vn -0.2483 -0.9187 -0.3070
vn -0.1426 -0.9718 -0.1880
vn 0.0325 -0.9994 -0.0112
vn 0.1995 -0.9678 0.1535
vn 0.3043 -0.9198 0.2477
vn -0.3011 -0.9193 -0.2533
vn -0.1748 -0.9720 -0.1573
vn 0.0337 -0.9993 -0.0172
vn 0.2281 -0.9674 0.1097
vn 0.3501 -0.9191 0.1809
vn -0.3542 -0.9210 -0.1622
vn -0.2077 -0.9726 -0.1046
vn 0.0342 -0.9991 -0.0262
vn 0.2523 -0.9668 0.0411
vn 0.3896 -0.9179 0.0754
vn -0.3729 -0.9220 -0.1040
vn -0.2215 -0.9725 -0.0712
vn 0.0348 -0.9989 -0.0322
vn 0.2605 -0.9655 -0.0010
vn 0.4008 -0.9161 0.0108
vt 0.002875 0.007257
vt 0.002875 0.172522
vt 0.002875 0.337787
vt 0.002875 0.503052
vt 0.002875 0.668317
vt 0.002875 0.833582
vt 0.002875 0.998846
vt 0.064797 0.007257
vt 0.064797 0.172522
vt 0.064797 0.337787
vt 0.064797 0.503052
vt 0.064797 0.668317
vt 0.064797 0.833582
vt 0.064797 0.998846
vt 0.126720 0.007257
vt 0.126720 0.172522
vt 0.126720 0.337787
vt 0.126720 0.503052
vt 0.126720 0.668317
vt 0.126720 0.833582
vt 0.126720 0.998846
vt 0.188642 0.007257
vt 0.188642 0.172522
vt 0.188642 0.337787
vt 0.188642 0.503052
vt 0.188642 0.668317
vt 0.188642 0.833582
vt 0.188642 0.998846
vt 0.250564 0.007257
vt 0.250564 0.172522
vt 0.250564 0.337787
vt 0.250564 0.503052
vt 0.250564 0.668317
vt 0.250564 0.833582
vt 0.250564 0.998846
vt 0.312487 0.007257
vt 0.312487 0.172522
vt 0.312487 0.337787
vt 0.312487 0.503052
vt 0.312487 0.668317
vt 0.312487 0.833582
vt 0.312487 0.998846
vt 0.374409 0.007257
vt 0.374409 0.172522
vt 0.374409 0.337787
vt 0.374409 0.503052
vt 0.374409 0.668317
vt 0.374409 0.833582
vt 0.374409 0.998846
vt 0.436331 0.007257
vt 0.436331 0.172522
vt 0.436331 0.337787
vt 0.436331 0.503052
vt 0.436331 0.668317
vt 0.436331 0.833582
vt 0.436331 0.998846
vt 0.498254 0.007257
vt 0.498254 0.172522
vt 0.498254 0.337787
vt 0.498254 0.503052
vt 0.498254 0.668317
vt 0.498254 0.833582
vt 0.498254 0.998846
vt 0.560176 0.007257
vt 0.560176 0.172522
vt 0.560176 0.337787
vt 0.560176 0.503052
vt 0.560176 0.668317
vt 0.560176 0.833582
vt 0.560176 0.998846
vt 0.622099 0.007257
vt 0.622099 0.172522
vt 0.622099 0.337787
vt 0.622099 0.503052
vt 0.622099 0.668317
vt 0.622099 0.833582
vt 0.622099 0.998846
vt 0.684021 0.007257
vt 0.684021 0.172522
vt 0.684021 0.337787
vt 0.684021 0.503052
vt 0.684021 0.668317
vt 0.684021 0.833582
vt 0.684021 0.998846
vt 0.745943 0.007257
vt 0.745943 0.172522
vt 0.745943 0.337787
vt 0.745943 0.503052
vt 0.745943 0.668317
vt 0.745943 0.833582
vt 0.745943 0.998846
vt 0.807866 0.007257
vt 0.807866 0.172522
vt 0.807866 0.337787
vt 0.807866 0.503052
vt 0.807866 0.668317
vt 0.807866 0.833582
vt 0.807866 0.998846
vt 0.869788 0.007257
vt 0.869788 0.172522
vt 0.869788 0.337787
vt 0.869788 0.503052
vt 0.869788 0.668317
vt 0.869788 0.833582
vt 0.869788 0.998846
vt 0.931710 0.007257
vt 0.931710 0.172522
vt 0.931710 0.337787
vt 0.931710 0.503052
vt 0.931710 0.668317
vt 0.931710 0.833582
vt 0.931710 0.998846
vt 0.993633 0.007257
vt 0.993633 0.172522
vt 0.993633 0.337787
vt 0.993633 0.503052
vt 0.993633 0.668317
vt 0.993633 0.833582
vt 0.993633 0.998846
vt 0.002875 0.172522
vt 0.002875 0.337787
vt 0.002875 0.503052
vt 0.002875 0.668317
vt 0.002875 0.833582
vt 0.064797 0.172522
vt 0.064797 0.337787
vt 0.064797 0.503052
vt 0.064797 0.668317
vt 0.064797 0.833582
vt 0.126720 0.172522
vt 0.126720 0.337787
vt 0.126720 0.503052
vt 0.126720 0.668317
vt 0.126720 0.833582
vt 0.188642 0.172522
vt 0.188642 0.337787
vt 0.188642 0.503052
vt 0.188642 0.668317
vt 0.188642 0.833582
vt 0.250564 0.172522
vt 0.250564 0.337787
vt 0.250564 0.503052
vt 0.250564 0.668317
vt 0.250564 0.833582
vt 0.312487 0.172522
vt 0.312487 0.337787
vt 0.312487 0.503052
vt 0.312487 0.668317
vt 0.312487 0.833582
vt 0.374409 0.172522
vt 0.374409 0.337787
vt 0.374409 0.503052
vt 0.374409 0.668317
vt 0.374409 0.833582
vt 0.436331 0.172522
vt 0.436331 0.337787
vt 0.436331 0.503052
vt 0.436331 0.668317
vt 0.436331 0.833582
vt 0.498254 0.172522
vt 0.498254 0.337787
vt 0.498254 0.503052
vt 0.498254 0.668317
vt 0.498254 0.833582
vt 0.560176 0.172522
vt 0.560176 0.337787
vt 0.560176 0.503052
vt 0.560176 0.668317
vt 0.560176 0.833582
vt 0.622099 0.172522
vt 0.622099 0.337787
vt 0.622099 0.503052
vt 0.622099 0.668317
vt 0.622099 0.833582
vt 0.684021 0.172522
vt 0.684021 0.337787
vt 0.684021 0.503052
vt 0.684021 0.668317
vt 0.684021 0.833582
vt 0.745943 0.172522
vt 0.745943 0.337787
vt 0.745943 0.503052
vt 0.745943 0.668317
vt 0.745943 0.833582
vt 0.807866 0.172522
vt 0.807866 0.337787
vt 0.807866 0.503052
vt 0.807866 0.668317
vt 0.807866 0.833582
vt 0.869788 0.172522
vt 0.869788 0.337787
vt 0.869788 0.503052
vt 0.869788 0.668317
vt 0.869788 0.833582
vt 0.931710 0.172522
vt 0.931710 0.337787
vt 0.931710 0.503052
vt 0.931710 0.668317
vt 0.931710 0.833582
vt 0.993633 0.172522
vt 0.993633 0.337787
vt 0.993633 0.503052
vt 0.993633 0.668317
vt 0.993633 0.833582
s 1
usemtl Material.001
f 2/2/1 9/9/2 8/8/3 1/1/4
f 3/3/5 10/10/6 9/9/2 2/2/1
f 4/4/7 11/11/8 10/10/6 3/3/5
f 5/5/9 12/12/10 11/11/8 4/4/7
f 6/6/11 13/13/12 12/12/10 5/5/9
f 7/7/13 14/14/14 13/13/12 6/6/11
f 9/9/2 16/16/15 15/15/16 8/8/3
f 10/10/6 17/17/17 16/16/15 9/9/2
f 11/11/8 18/18/18 17/17/17 10/10/6
f 12/12/10 19/19/19 18/18/18 11/11/8
f 13/13/12 20/20/20 19/19/19 12/12/10
f 14/14/14 21/21/21 20/20/20 13/13/12
f 16/16/15 23/23/22 22/22/23 15/15/16
f 17/17/17 24/24/24 23/23/22 16/16/15
f 18/18/18 25/25/25 24/24/24 17/17/17
f 19/19/19 26/26/26 25/25/25 18/18/18
f 20/20/20 27/27/27 26/26/26 19/19/19
f 21/21/21 28/28/28 27/27/27 20/20/20
f 23/23/22 30/30/29 29/29/30 22/22/23
f 24/24/24 31/31/31 30/30/29 23/23/22
f 25/25/25 32/32/32 31/31/31 24/24/24
f 26/26/26 33/33/33 32/32/32 25/25/25
f 27/27/27 34/34/34 33/33/33 26/26/26
f 28/28/28 35/35/35 34/34/34 27/27/27
f 30/30/29 37/37/36 36/36/37 29/29/30
f 31/31/31 38/38/38 37/37/36 30/30/29
f 32/32/32 39/39/39 38/38/38 31/31/31
f 33/33/33 40/40/40 39/39/39 32/32/32
f 34/34/34 41/41/41 40/40/40 33/33/33
f 35/35/35 42/42/42 41/41/41 34/34/34
f 37/37/36 44/44/43 43/43/44 36/36/37
f 38/38/38 45/45/45 44/44/43 37/37/36
f 39/39/39 46/46/46 45/45/45 38/38/38
f 40/40/40 47/47/47 46/46/46 39/39/39
f 41/41/41 48/48/48 47/47/47 40/40/40
f 42/42/42 49/49/49 48/48/48 41/41/41
f 44/44/43 51/51/50 50/50/51 43/43/44
f 45/45/45 52/52/52 51/51/50 44/44/43
f 46/46/46 53/53/53 52/52/52 45/45/45
f 47/47/47 54/54/54 53/53/53 46/46/46
f 48/48/48 55/55/55 54/54/54 47/47/47
f 49/49/49 56/56/56 55/55/55 48/48/48
f 51/51/50 58/58/57 57/57/58 50/50/51
f 52/52/52 59/59/59 58/58/57 51/51/50
f 53/53/53 60/60/60 59/59/59 52/52/52
f 54/54/54 61/61/61 60/60/60 53/53/53
f 55/55/55 62/62/62 61/61/61 54/54/54
f 56/56/56 63/63/63 62/62/62 55/55/55
f 58/58/57 65/65/64 64/64/65 57/57/58
f 59/59/59 66/66/66 65/65/64 58/58/57
f 60/60/60 67/67/67 66/66/66 59/59/59
f 61/61/61 68/68/68 67/67/67 60/60/60
f 62/62/62 69/69/69 68/68/68 61/61/61
f 63/63/63 70/70/70 69/69/69 62/62/62
f 65/65/64 72/72/71 71/71/72 64/64/65
f 66/66/66 73/73/73 72/72/71 65/65/64
f 67/67/67 74/74/74 73/73/73 66/66/66
f 68/68/68 75/75/75 74/74/74 67/67/67
f 69/69/69 76/76/76 75/75/75 68/68/68
f 70/70/70 77/77/77 76/76/76 69/69/69
f 72/72/71 79/79/78 78/78/79 71/71/72
f 73/73/73 80/80/80 79/79/78 72/72/71
f 74/74/74 81/81/81 80/80/80 73/73/73
f 75/75/75 82/82/82 81/81/81 74/74/74
f 76/76/76 83/83/83 82/82/82 75/75/75
f 77/77/77 84/84/84 83/83/83 76/76/76
f 79/79/78 86/86/85 85/85/86 78/78/79
f 80/80/80 87/87/87 86/86/85 79/79/78
f 81/81/81 88/88/88 87/87/87 80/80/80
f 82/82/82 89/89/89 88/88/88 81/81/81
f 83/83/83 90/90/90 89/89/89 82/82/82
f 84/84/84 91/91/91 90/90/90 83/83/83
f 86/86/85 93/93/92 92/92/93 85/85/86
f 87/87/87 94/94/94 93/93/92 86/86/85
f 88/88/88 95/95/95 94/94/94 87/87/87
f 89/89/89 96/96/96 95/95/95 88/88/88
f 90/90/90 97/97/97 96/96/96 89/89/89
f 91/91/91 98/98/98 97/97/97 90/90/90
f 93/93/92 100/100/99 99/99/100 92/92/93
f 94/94/94 101/101/101 100/100/99 93/93/92
f 95/95/95 102/102/102 101/101/101 94/94/94
f 96/96/96 103/103/103 102/102/102 95/95/95
f 97/97/97 104/104/104 103/103/103 96/96/96
f 98/98/98 105/105/105 104/104/104 97/97/97
f 100/100/99 107/107/106 106/106/107 99/99/100
f 101/101/101 108/108/108 107/107/106 100/100/99
f 102/102/102 109/109/109 108/108/108 101/101/101
f 103/103/103 110/110/110 109/109/109 102/102/102
f 104/104/104 111/111/111 110/110/110 103/103/103
f 105/105/105 112/112/112 111/111/111 104/104/104
f 107/107/106 114/114/113 113/113/114 106/106/107
f 108/108/108 115/115/115 114/114/113 107/107/106
f 109/109/109 116/116/116 115/115/115 108/108/108
f 110/110/110 117/117/117 116/116/116 109/109/109
f 111/111/111 118/118/118 117/117/117 110/110/110
f 112/112/112 119/119/119 118/118/118 111/111/111
f 120/120/120 1/1/4 8/8/3 125/125/121
f 121/121/122 120/120/120 125/125/121 126/126/123
f 122/122/124 121/121/122 126/126/123 127/127/125
f 123/123/126 122/122/124 127/127/125 128/128/127
f 124/124/128 123/123/126 128/128/127 129/129/129
f 7/7/13 124/124/128 129/129/129 14/14/14
f 125/125/121 8/8/3 15/15/16 130/130/130
f 126/126/123 125/125/121 130/130/130 131/131/131
f 127/127/125 126/126/123 131/131/131 132/132/132
f 128/128/127 127/127/125 132/132/132 133/133/133
f 129/129/129 128/128/127 133/133/133 134/134/134
f 14/14/14 129/129/129 134/134/134 21/21/21
f 130/130/130 15/15/16 22/22/23 135/135/135
f 131/131/131 130/130/130 135/135/135 136/136/136
f 132/132/132 131/131/131 136/136/136 137/137/137
f 133/133/133 132/132/132 137/137/137 138/138/138
f 134/134/134 133/133/133 138/138/138 139/139/139
f 21/21/21 134/134/134 139/139/139 28/28/28
f 135/135/135 22/22/23 29/29/30 140/140/140
f 136/136/136 135/135/135 140/140/140 141/141/141
f 137/137/137 136/136/136 141/141/141 142/142/142
f 138/138/138 137/137/137 142/142/142 143/143/143
f 139/139/139 138/138/138 143/143/143 144/144/144
f 28/28/28 139/139/139 144/144/144 35/35/35
f 140/140/140 29/29/30 36/36/37 145/145/145
f 141/141/141 140/140/140 145/145/145 146/146/146
f 142/142/142 141/141/141 146/146/146 147/147/147
f 143/143/143 142/142/142 147/147/147 148/148/148
f 144/144/144 143/143/143 148/148/148 149/149/149
f 35/35/35 144/144/144 149/149/149 42/42/42
f 145/145/145 36/36/37 43/43/44 150/150/150
f 146/146/146 145/145/145 150/150/150 151/151/151
f 147/147/147 146/146/146 151/151/151 152/152/152
f 148/148/148 147/147/147 152/152/152 153/153/153
f 149/149/149 148/148/148 153/153/153 154/154/154
f 42/42/42 149/149/149 154/154/154 49/49/49
f 150/150/150 43/43/44 50/50/51 155/155/155
f 151/151/151 150/150/150 155/155/155 156/156/156
f 152/152/152 151/151/151 156/156/156 157/157/157
f 153/153/153 152/152/152 157/157/157 158/158/158
f 154/154/154 153/153/153 158/158/158 159/159/159
f 49/49/49 154/154/154 159/159/159 56/56/56
f 155/155/155 50/50/51 57/57/58 160/160/160
f 156/156/156 155/155/155 160/160/160 161/161/161
f 157/157/157 156/156/156 161/161/161 162/162/162
f 158/158/158 157/157/157 162/162/162 163/163/163
f 159/159/159 158/158/158 163/163/163 164/164/164
f 56/56/56 159/159/159 164/164/164 63/63/63
f 160/160/160 57/57/58 64/64/65 165/165/165
f 161/161/161 160/160/160 165/165/165 166/166/166
f 162/162/162 161/161/161 166/166/166 167/167/167
f 163/163/163 162/162/162 167/167/167 168/168/168
f 164/164/164 163/163/163 168/168/168 169/169/169
f 63/63/63 164/164/164 169/169/169 70/70/70
f 165/165/165 64/64/65 71/71/72 170/170/170
f 166/166/166 165/165/165 170/170/170 171/171/171
f 167/167/167 166/166/166 171/171/171 172/172/172
f 168/168/168 167/167/167 172/172/172 173/173/173
f 169/169/169 168/168/168 173/173/173 174/174/174
f 70/70/70 169/169/169 174/174/174 77/77/77
f 170/170/170 71/71/72 78/78/79 175/175/175
f 171/171/171 170/170/170 175/175/175 176/176/176
f 172/172/172 171/171/171 176/176/176 177/177/177
f 173/173/173 172/172/172 177/177/177 178/178/178
f 174/174/174 173/173/173 178/178/178 179/179/179
f 77/77/77 174/174/174 179/179/179 84/84/84
f 175/175/175 78/78/79 85/85/86 180/180/180
f 176/176/176 175/175/175 180/180/180 181/181/181
f 177/177/177 176/176/176 181/181/181 182/182/182
f 178/178/178 177/177/177 182/182/182 183/183/183
f 179/179/179 178/178/178 183/183/183 184/184/184
f 84/84/84 179/179/179 184/184/184 91/91/91
f 180/180/180 85/85/86 92/92/93 185/185/185
f 181/181/181 180/180/180 185/185/185 186/186/186
f 182/182/182 181/181/181 186/186/186 187/187/187
f 183/183/183 182/182/182 187/187/187 188/188/188
f 184/184/184 183/183/183 188/188/188 189/189/189
f 91/91/91 184/184/184 189/189/189 98/98/98
f 185/185/185 92/92/93 99/99/100 190/190/190
f 186/186/186 185/185/185 190/190/190 191/191/191
f 187/187/187 186/186/186 191/191/191 192/192/192
f 188/188/188 187/187/187 192/192/192 193/193/193
f 189/189/189 188/188/188 193/193/193 194/194/194
f 98/98/98 189/189/189 194/194/194 105/105/105
f 190/190/190 99/99/100 106/106/107 195/195/195
f 191/191/191 190/190/190 195/195/195 196/196/196
f 192/192/192 191/191/191 196/196/196 197/197/197
f 193/193/193 192/192/192 197/197/197 198/198/198
f 194/194/194 193/193/193 198/198/198 199/199/199
f 105/105/105 194/194/194 199/199/199 112/112/112
f 195/195/195 106/106/107 113/113/114 200/200/200
f 196/196/196 195/195/195 200/200/200 201/201/201
f 197/197/197 196/196/196 201/201/201 202/202/202
f 198/198/198 197/197/197 202/202/202 203/203/203
f 199/199/199 198/198/198 203/203/203 204/204/204
f 112/112/112 199/199/199 204/204/204 119/119/119
